<?xml version="1.0" encoding="utf-8"?>
<!-- Generator: Adobe Illustrator 19.2.0, SVG Export Plug-In . SVG Version: 6.00 Build 0)  -->
<svg version="1.1" id="Layer_1" xmlns="http://www.w3.org/2000/svg" xmlns:xlink="http://www.w3.org/1999/xlink" x="0px" y="0px"
	 viewBox="0 0 800.9 800.9" style="enable-background:new 0 0 800.9 800.9;" xml:space="preserve">
<style type="text/css">
	.st0{fill:#FE7E17;}
	.st1{fill:#333333;}
	.st2{opacity:0.25;}
	.st3{fill:#FFFFFF;}
	.st4{opacity:0.3;}
</style>
<path class="st0" d="M299.5,771.3C282.4,720,265.1,668.7,248,617.5c-15.2-45.5-30-91.3-45.8-136.5c-3.9-11.1,2.1-16.6,4.8-23
	c10.5-24.6,22.2-48.1,33.2-72.2c19-41.5,37.8-83.2,56.8-124.7c9.5-20.7,19.1-41.1,28.8-61.6c3.7-7.9,21.7-13.4,27-8.1
	c1.3,1.3,2.4,4.5,2.2,6.6c-2.8,34.2-5.7,68.4-8.9,102.5c-3.5,36.4-7.8,72.6-11.1,109c-2.1,23-2.2,46.4-4.3,69.4
	c-2.8,30.3-7.2,60.3-10.2,90.6c-2,20.2-2.2,40.6-3.8,60.9c-1.5,19-4,37.9-5.6,56.9c-2,23.3-3.4,46.8-5.4,70.1
	c-0.4,5.1-2.2,9.9-3.3,14.9C301.5,771.7,300.5,771.5,299.5,771.3z"/>
<g>
	<path class="st1" d="M346.2,201.4c-7.7,1.3-15.4,2.6-23.1,3.9c-52.1,8.8-103.4,17.4-156.4,26.4c2-3.7,2.6-6.2,4.2-7.7
		c44.5-40.3,89.1-80.6,133.6-120.8c29.9-27,59.8-54,89.8-80.9c3.6-3.3,7.4-6.6,11.6-9c1.7-0.9,5.6-0.3,7,1.1
		c8,8.3,15.5,17.1,23.3,25.7c26.8,29.6,53.7,59.1,80.4,88.8c10,11.1,20.5,21.8,28.8,34.1c4,6,4,15,4.9,22.7
		c2.6,23.6,4.6,47.2,7.2,70.8c2.6,22.8,5.8,45.4,8.5,68.2c2.6,22.1,4.9,44.3,7.4,66.4c3.2,28.6,6.5,57.1,9.9,85.7
		c2.8,23.7,5.6,47.4,8.5,71.1c4.3,36,8.9,72,13.1,108.1c3.6,31.3,6.8,62.6,9.9,93.9c0.7,6.9,3.1,18.3,0.2,20.1
		c-6.1,3.6-15.2,2.7-23.1,2.7c-98.6,0.1-197.2,0.1-295.8,0.1c-15.8,0-17.8-2.8-15.6-18c4.1-29.2,7.4-58.5,11.2-87.7
		c3.6-28.1,7.7-56.1,11.1-84.2c3.5-30.1,6.2-60.3,9.6-90.4c4.2-36.1,8.8-72.2,13.2-108.2c3.3-27.4,6.4-54.8,9.7-82.3
		c3.6-29.3,7.4-58.5,11-87.7C346.5,210.6,346.2,206.8,346.2,201.4z"/>
</g>
<polyline class="st2" points="460,303.4 314.6,642.8 546.5,413.2 "/>
<polyline class="st3" points="460,303.4 325.5,617.4 540,405 "/>
<path class="st2" d="M549.5,178"/>
<path class="st4" d="M323,205.3l224.4-38.2c1.2,4.2,1.9,8.8,2.3,13.5l-229.2,29.9L323,205.3z"/>
</svg>
